<svg version="1.1" id="Layer_1" xmlns="http://www.w3.org/2000/svg" xmlns:xlink="http://www.w3.org/1999/xlink" x="0px" y="0px"
	 width="100%" viewBox="0 0 198 154" enable-background="new 0 0 198 154" xml:space="preserve">
<path fill="#FEFFFE" opacity="1.000000" stroke="none" 
	d="
M122.000000,155.000000 
	C82.527718,155.000000 43.555363,154.970612 4.583297,155.062866 
	C1.841091,155.069366 0.888605,154.812119 0.898211,151.587814 
	C1.044579,102.456528 1.033462,53.324589 0.915242,4.193150 
	C0.908293,1.305069 1.646292,0.927319 4.302531,0.931009 
	C68.090370,1.019613 131.878403,1.017831 195.666260,0.935778 
	C198.257965,0.932444 199.096054,1.206620 199.088608,4.161946 
	C198.964355,53.459908 198.973526,102.758324 199.073410,152.056396 
	C199.078751,154.689316 198.313858,155.063004 195.947525,155.054443 
	C171.465271,154.965866 146.982574,155.000000 122.000000,155.000000 
z"/>
<path fill="#B7D485" opacity="1.000000" stroke="none" 
	d="
M55.788605,23.228104 
	C58.703312,22.973366 61.401436,22.931540 64.548630,22.918602 
	C74.166885,24.549347 83.537483,24.162489 92.700432,25.589766 
	C101.729698,26.996218 110.930695,26.000706 119.900307,27.953192 
	C121.763824,28.358835 123.641090,28.311216 123.522263,31.321075 
	C120.498825,33.748089 117.348427,32.014507 114.333122,32.349293 
	C112.222031,32.583683 110.058617,32.193874 107.535370,32.861019 
	C105.382652,33.365429 103.648003,33.397202 101.505142,32.869781 
	C95.185547,29.682711 88.918983,30.066105 82.198181,30.944618 
	C80.036789,31.375532 78.296883,31.388477 76.150818,30.782448 
	C70.517456,28.674046 65.077187,28.160383 59.591297,28.535379 
	C55.927486,28.785826 53.901623,31.314348 53.584003,34.781376 
	C53.251060,38.415619 52.960266,42.063805 52.727737,45.707569 
	C52.381413,51.134480 52.889999,51.565193 58.595203,51.599339 
	C66.591713,51.647198 74.588631,51.611782 82.585373,51.612888 
	C99.911644,51.615288 117.237930,51.621296 134.564194,51.607838 
	C139.086823,51.604324 143.503922,52.226322 148.224350,53.768196 
	C148.869736,54.160816 149.114761,54.340824 149.665680,54.860710 
	C151.977295,58.033440 152.415436,61.237331 152.405838,64.622284 
	C152.370255,77.182549 152.398819,89.743088 152.381332,102.303459 
	C152.377594,104.984344 152.536407,107.589272 154.302475,110.307541 
	C155.067352,111.900475 155.114471,113.103477 154.312241,114.702881 
	C154.064194,115.097397 154.129074,115.085350 154.133423,115.118057 
	C153.598251,115.424438 153.211929,115.850830 152.807373,116.641861 
	C152.728271,118.356194 152.762390,119.800552 152.725723,121.673485 
	C152.932022,122.977959 152.985703,123.839516 152.349365,124.966415 
	C152.214645,125.943504 152.220856,126.619972 152.209961,127.634361 
	C151.858139,129.278870 151.320847,130.487488 150.246704,131.792984 
	C150.027328,132.043396 149.931061,132.483109 149.846893,132.691833 
	C148.812927,133.828430 147.619171,134.329636 146.105896,134.871582 
	C144.986649,135.011948 144.151474,134.991745 143.223434,135.712677 
	C107.641159,135.937592 72.289284,135.967926 36.472725,135.937286 
	C35.245365,135.090210 34.252865,134.964905 32.927715,134.852997 
	C31.770002,134.565353 31.100805,134.057587 30.309597,133.176819 
	C30.107574,132.927185 30.031750,132.965591 30.053457,132.929047 
	C29.191736,132.174103 28.538265,131.242813 27.608721,130.116852 
	C26.539312,121.367889 27.129110,112.887695 27.060095,104.420540 
	C26.946259,90.454453 27.001865,76.486687 27.052334,62.519875 
	C27.059788,60.457230 26.370813,58.094685 28.974228,56.353432 
	C31.529058,52.702698 34.866982,51.702385 38.736412,51.597866 
	C46.754768,51.381290 46.754189,51.326225 47.012653,43.516937 
	C47.045578,42.522224 46.997162,41.516090 47.725563,40.263939 
	C47.964760,39.188473 47.974194,38.448471 48.035591,37.341743 
	C47.695763,33.535259 48.465904,30.393602 50.748158,27.285652 
	C51.486237,26.405626 51.975136,25.815916 52.735542,25.115086 
	C53.645256,24.127226 54.779114,24.063887 55.788605,23.228104 
z"/>
<path fill="#C8DEA1" opacity="1.000000" stroke="none" 
	d="
M123.395905,32.250145 
	C123.250412,29.544428 121.767235,29.342056 119.719154,28.885704 
	C111.102219,26.965689 102.268448,28.922066 93.644096,27.048582 
	C85.090378,25.190443 76.244110,26.302183 67.609367,24.998360 
	C66.614120,24.848082 65.612679,24.876873 65.082878,23.341579 
	C71.252213,20.737211 77.438377,23.148970 83.628433,23.423079 
	C93.678703,23.868126 103.683372,25.269873 113.719429,26.125347 
	C130.347977,27.542763 146.996231,28.737627 163.613846,30.268673 
	C168.322510,30.702499 172.145386,32.942043 173.144928,38.566257 
	C171.960251,39.924271 170.777069,39.456722 170.122330,38.484306 
	C167.842972,35.098927 164.451706,33.977348 160.723953,33.926079 
	C151.288422,33.796307 142.098572,31.073536 132.628159,31.408108 
	C130.469879,31.484358 128.321091,31.497240 125.862137,32.412827 
	C124.883781,32.646446 124.317978,32.630131 123.395905,32.250145 
z"/>
<path fill="#BDD88F" opacity="1.000000" stroke="none" 
	d="
M154.482864,115.139938 
	C154.043243,114.006920 154.022293,112.916435 153.998291,111.418381 
	C155.418121,109.036545 158.600082,110.615051 159.928818,107.836418 
	C160.575348,106.445663 160.862671,105.290939 161.428986,103.843407 
	C162.992599,99.188454 163.596680,94.777489 163.028687,89.856918 
	C162.472580,86.496582 162.437927,83.518097 162.970322,80.157677 
	C164.664673,76.257668 165.754898,72.518524 167.909058,68.849014 
	C168.916473,68.228188 169.663071,68.222786 170.729538,68.773560 
	C171.076218,69.443146 171.108185,69.879501 171.115906,70.643845 
	C171.027618,81.679260 168.986801,92.242119 168.844193,102.959579 
	C168.771561,108.418564 166.181885,112.744614 160.389496,115.028679 
	C158.281296,115.152458 156.591415,115.167473 154.482864,115.139938 
z"/>
<path fill="#B7D485" opacity="1.000000" stroke="none" 
	d="
M124.725639,32.407715 
	C125.763344,30.241905 127.309677,30.031588 129.068161,29.971388 
	C141.320038,29.551960 153.296112,32.308178 165.443497,33.102539 
	C168.933914,33.330791 169.936111,37.122429 172.776581,38.907219 
	C173.150696,41.657921 173.165375,44.377270 173.167923,47.547478 
	C171.875214,50.717754 172.887344,53.838169 171.419754,56.895081 
	C170.175430,57.861519 169.157410,57.848221 167.852142,57.001263 
	C165.788712,52.887962 167.819916,49.277012 168.293640,45.587494 
	C168.750214,42.031517 168.688522,38.916416 163.944427,37.991421 
	C162.528778,38.134583 161.499054,38.083927 160.109406,37.686844 
	C159.001953,37.192455 158.369598,36.622906 157.543137,36.457428 
	C148.994354,34.745747 140.348953,34.529102 131.272034,34.898582 
	C129.177353,35.307953 127.491356,35.407787 125.458305,34.590988 
	C124.680855,33.924095 124.496780,33.397472 124.725639,32.407715 
z"/>
<path fill="#CAE0A5" opacity="1.000000" stroke="none" 
	d="
M160.211411,115.354813 
	C170.858276,108.556099 167.349609,97.169167 168.779449,87.614471 
	C169.571075,82.324585 169.565628,76.846107 170.783478,71.238022 
	C173.315826,77.222572 171.377808,83.470261 170.686127,89.615570 
	C170.125885,94.592949 169.952286,99.534042 169.797272,104.507904 
	C169.632416,109.797554 165.588425,114.523087 160.211411,115.354813 
z"/>
<path fill="#C8DEA1" opacity="1.000000" stroke="none" 
	d="
M47.591599,40.058846 
	C47.981522,41.751610 48.046982,43.575188 48.026787,45.397812 
	C47.957348,51.665699 46.637814,53.080585 40.484936,52.967983 
	C36.620804,52.897270 32.859394,52.822182 29.593521,56.001827 
	C30.245863,51.406113 34.350327,50.771923 37.829227,50.296432 
	C45.312340,49.273651 45.357292,49.554840 46.166946,42.272938 
	C46.261452,41.422951 46.438774,40.662880 47.591599,40.058846 
z"/>
<path fill="#CAE0A5" opacity="1.000000" stroke="none" 
	d="
M170.662888,57.400116 
	C171.583160,54.077721 169.733459,50.764214 172.754913,48.076553 
	C174.756546,54.755207 173.583954,61.329483 171.491211,68.018532 
	C168.619217,64.880692 169.193100,61.361725 170.662888,57.400116 
z"/>
<path fill="#B6D483" opacity="1.000000" stroke="none" 
	d="
M170.626648,56.999218 
	C170.975449,60.410130 170.990250,63.818394 171.069885,67.698540 
	C171.134735,68.170418 171.126709,68.592644 171.085480,68.799713 
	C170.271698,69.011765 169.499130,69.016747 168.340897,69.030846 
	C166.819382,68.087181 166.671753,66.664528 166.108734,64.984985 
	C165.577682,62.063808 165.401627,59.548897 166.321136,56.670715 
	C166.739929,56.111897 166.959793,55.931004 167.588928,55.872208 
	C168.515259,56.895523 169.382523,56.995087 170.626648,56.999218 
z"/>
<path fill="#C8DEA1" opacity="1.000000" stroke="none" 
	d="
M50.636120,27.050617 
	C50.904438,30.323217 48.288013,33.017242 48.354744,36.713676 
	C46.607704,33.195724 47.066341,29.846069 50.636120,27.050617 
z"/>
<path fill="#CAE0A5" opacity="1.000000" stroke="none" 
	d="
M150.357620,131.993774 
	C149.893600,130.531143 150.077911,129.144257 151.857025,128.112961 
	C153.666473,130.044662 152.465698,131.103729 150.357620,131.993774 
z"/>
<path fill="#CAE0A5" opacity="1.000000" stroke="none" 
	d="
M144.797211,134.300598 
	C146.375015,133.659164 147.725586,133.300934 149.419449,132.921631 
	C149.117325,134.879272 147.734009,135.871307 145.323212,135.930481 
	C144.642166,135.522751 144.497849,135.086304 144.797211,134.300598 
z"/>
<path fill="#CFE3AE" opacity="1.000000" stroke="none" 
	d="
M27.356079,130.160126 
	C28.957321,129.907501 30.072773,130.432373 30.062086,132.548767 
	C28.478382,132.869370 27.463739,132.165009 27.356079,130.160126 
z"/>
<path fill="#CFE3AE" opacity="1.000000" stroke="none" 
	d="
M30.119717,133.282822 
	C30.904596,133.194992 31.701618,133.462799 32.795738,133.850433 
	C33.454697,134.412201 34.012577,134.686569 34.115604,135.548798 
	C32.179676,136.071289 30.721016,135.628891 30.119717,133.282822 
z"/>
<path fill="#CAE0A5" opacity="1.000000" stroke="none" 
	d="
M152.491592,125.133224 
	C152.216904,124.378288 152.225388,123.489548 152.444412,122.351440 
	C154.250275,123.003532 153.968933,123.982597 152.491592,125.133224 
z"/>
<path fill="#C8DEA1" opacity="1.000000" stroke="none" 
	d="
M55.652878,22.993359 
	C55.947380,24.489796 55.082111,25.040493 53.360962,25.010397 
	C53.064476,23.528585 53.974312,23.015106 55.652878,22.993359 
z"/>
<path fill="#BDD88F" opacity="1.000000" stroke="none" 
	d="
M34.353218,135.884247 
	C33.767384,135.372940 33.509720,134.920700 33.172447,134.219345 
	C34.170528,134.060547 35.400749,133.810730 35.946899,135.549500 
	C35.565826,135.898636 35.123604,135.920975 34.353218,135.884247 
z"/>
<path fill="#CAE0A5" opacity="1.000000" stroke="none" 
	d="
M152.986755,116.811737 
	C151.788086,115.746300 152.418732,115.294510 153.842743,115.112473 
	C153.851639,115.671059 153.565475,116.191338 152.986755,116.811737 
z"/>
<path fill="#BDD88F" opacity="1.000000" stroke="none" 
	d="
M144.707825,134.048676 
	C145.014252,134.436676 145.004059,134.855927 144.983154,135.588806 
	C144.531876,135.935547 144.091324,135.968658 143.321899,135.954498 
	C143.089264,135.015167 143.362305,134.258362 144.707825,134.048676 
z"/>
<path fill="#FCFDF9" opacity="1.000000" stroke="none" 
	d="
M166.992859,55.578468 
	C166.908401,58.672199 166.828049,61.345192 166.713654,64.459999 
	C166.578949,69.464066 164.730133,73.768303 164.536438,78.708809 
	C164.248535,82.415070 164.120377,85.752907 164.008667,89.548569 
	C163.981781,94.483147 162.781830,98.840942 162.471222,103.686798 
	C162.038757,105.263306 161.791855,106.462311 161.304337,107.939606 
	C155.008499,111.725487 152.048386,110.139633 152.020233,103.259888 
	C151.966675,90.175728 151.945404,77.090767 152.048126,64.007248 
	C152.072479,60.907894 151.660324,58.093082 149.374084,55.279121 
	C149.091232,54.907707 149.000000,55.000000 149.046417,54.954643 
	C145.495407,51.828880 141.057831,52.051231 136.800903,52.037388 
	C111.225838,51.954216 85.650375,52.003021 60.075043,51.992558 
	C52.123856,51.989304 51.337261,50.992386 52.735344,42.870895 
	C53.185940,40.253380 53.051331,37.586514 53.471428,34.956200 
	C54.315865,29.668989 56.435173,27.686211 61.868420,28.084120 
	C66.322647,28.410328 70.762375,29.001518 75.664688,29.476562 
	C77.797295,29.744860 79.491051,29.828894 81.609268,29.880136 
	C88.140610,30.136286 94.241020,30.504616 100.698952,31.525507 
	C102.784813,31.796215 104.475243,31.879244 106.589676,31.946609 
	C112.821045,31.959085 118.599403,32.335598 124.709984,33.572392 
	C126.786552,33.840103 128.475891,33.907951 130.588409,33.957581 
	C140.500183,33.956669 149.863312,35.484787 159.699005,36.455978 
	C161.155853,36.708790 162.200363,36.793419 163.639145,36.869095 
	C167.727112,38.343369 168.397919,41.395100 168.309402,44.917137 
	C168.222351,48.381702 167.139084,51.707314 166.992859,55.578468 
z"/>
<path fill="#F8FBF3" opacity="1.000000" stroke="none" 
	d="
M32.144669,63.285427 
	C32.137680,58.637417 34.997334,57.108475 38.575310,57.099270 
	C72.897064,57.010960 107.219505,56.972813 141.540680,57.140133 
	C146.145432,57.162579 147.920547,60.633198 147.841003,65.400627 
	C147.237991,66.921860 146.234741,67.701767 145.023788,68.683342 
	C125.030579,68.552948 105.326027,68.216988 85.620041,68.060989 
	C70.041595,67.937660 54.461372,68.047203 38.881992,68.020042 
	C36.940407,68.016663 34.828033,68.524399 33.045597,66.379822 
	C32.273155,65.325958 31.984159,64.525154 32.144669,63.285427 
z"/>
<path fill="#BDD88F" opacity="1.000000" stroke="none" 
	d="
M108.000000,72.002251 
	C119.480278,72.002258 130.460617,71.979813 141.440811,72.010818 
	C148.011047,72.029373 148.998550,73.040321 149.001068,79.453392 
	C149.003616,85.936501 148.025711,86.983566 141.532303,86.987534 
	C107.094162,87.008591 72.655991,87.012558 38.217873,86.983734 
	C31.818134,86.978378 30.937172,85.885147 30.996922,78.706604 
	C31.046366,72.766251 31.827511,72.009209 38.124592,72.006454 
	C61.249725,71.996338 84.374863,72.002350 108.000000,72.002251 
z"/>
<path fill="#BDD88F" opacity="1.000000" stroke="none" 
	d="
M34.306057,128.293915 
	C30.938692,128.617294 30.981308,126.415215 30.987011,124.160423 
	C31.011021,114.668137 30.978468,105.175705 31.004061,95.683426 
	C31.019703,89.881989 31.875626,89.008751 37.659729,89.006004 
	C70.300072,88.990509 102.940422,88.998398 135.580765,88.998650 
	C138.411819,88.998672 141.242874,88.996223 144.073914,89.003792 
	C147.338898,89.012527 148.993652,90.651581 148.995300,93.921387 
	C149.000473,104.246391 148.992264,114.571411 149.005020,124.896400 
	C149.007172,126.644211 148.852280,128.265976 146.156479,128.635651 
	C145.247543,119.389053 145.533401,110.421410 145.445145,101.453697 
	C145.363068,93.112740 144.920212,92.579353 136.763077,92.572395 
	C105.296951,92.545555 73.830772,92.547928 42.364635,92.571457 
	C34.856121,92.577072 34.583443,92.875732 34.569267,100.510109 
	C34.552578,109.498024 34.475582,118.486771 34.306057,128.293915 
z"/>
<path fill="#BDD88F" opacity="1.000000" stroke="none" 
	d="
M146.036636,129.037750 
	C145.348389,132.410858 142.713898,132.962784 139.980667,132.966278 
	C106.941673,133.008469 73.902527,133.020859 40.863705,132.935135 
	C38.306896,132.928497 35.493458,132.682144 33.972092,129.472412 
	C33.882160,129.114594 33.938251,129.060394 33.966148,129.033142 
	C34.982849,128.247375 36.132996,128.197632 37.314518,128.208542 
	C72.907074,128.537521 108.499802,128.467163 144.092621,128.253555 
	C144.418945,128.251587 144.745789,128.370865 145.497589,128.681213 
	C145.923035,128.926758 145.998993,129.000519 146.036636,129.037750 
z"/>
<path fill="#CDE1A9" opacity="1.000000" stroke="none" 
	d="
M75.956467,29.319099 
	C71.797798,30.035801 67.534256,30.171926 63.230431,29.264114 
	C57.884140,28.136412 55.706272,29.852291 54.876453,35.199692 
	C54.369576,38.466057 53.754547,41.715515 53.202694,44.975044 
	C52.384350,49.808590 53.293961,50.952991 58.240074,50.957367 
	C85.363274,50.981354 112.486511,50.960098 139.609711,50.980854 
	C143.066147,50.983498 146.663345,50.730930 149.027283,54.546993 
	C143.411240,53.799854 137.740097,52.911671 131.890411,52.942150 
	C107.754997,53.067894 83.617149,52.844189 59.483139,53.067493 
	C49.442211,53.160400 51.277069,51.611866 51.480537,43.049633 
	C51.511627,41.741329 52.068699,40.421551 51.972122,39.137959 
	C51.143940,28.131084 56.888184,25.916960 65.245941,27.173691 
	C68.752533,27.700966 72.506538,27.185965 75.956467,29.319099 
z"/>
<path fill="#CDE1A9" opacity="1.000000" stroke="none" 
	d="
M149.096863,55.304893 
	C152.604370,56.388515 153.040115,59.364655 153.028625,62.685730 
	C152.982529,76.008629 153.003876,89.331779 153.011826,102.654831 
	C153.015793,109.297363 153.824265,109.906036 160.665833,108.207382 
	C160.256210,112.009842 157.195557,110.742004 154.404938,111.005692 
	C150.612671,109.639374 151.080750,106.599220 151.067535,103.904945 
	C151.005157,91.180939 150.958694,78.455597 151.092178,65.732689 
	C151.129364,62.187477 150.739700,58.853935 149.096863,55.304893 
z"/>
<path fill="#CDE1A9" opacity="1.000000" stroke="none" 
	d="
M100.965134,31.371822 
	C94.822716,32.559940 88.673103,31.561375 82.281174,30.166243 
	C88.428780,28.212557 94.700775,28.533703 100.965134,31.371822 
z"/>
<path fill="#CDE1A9" opacity="1.000000" stroke="none" 
	d="
M125.073196,33.480637 
	C119.160965,34.636425 113.396530,33.090530 107.288040,32.226555 
	C112.073166,30.301928 117.135948,30.695023 122.618042,31.960629 
	C123.455093,32.014854 123.874176,32.014675 124.606239,32.017868 
	C124.962532,32.410500 125.005852,32.799759 125.073196,33.480637 
z"/>
<path fill="#C8DEA1" opacity="1.000000" stroke="none" 
	d="
M145.110016,68.853493 
	C145.093887,67.451637 145.841675,66.430565 147.535461,65.870613 
	C148.051422,67.575096 147.307068,68.646217 145.110016,68.853493 
z"/>
<path fill="#C8DEA1" opacity="1.000000" stroke="none" 
	d="
M31.900032,63.130596 
	C33.009804,63.593922 33.020676,64.481186 32.871605,65.727859 
	C31.107224,65.693726 30.628286,64.809715 31.900032,63.130596 
z"/>
<path fill="#CDE1A9" opacity="1.000000" stroke="none" 
	d="
M164.698151,78.950043 
	C163.631165,74.290283 164.338837,69.673332 166.341614,65.035065 
	C168.147141,65.627243 167.910034,66.997620 167.953186,68.651344 
	C168.263474,72.687065 165.474701,75.404816 164.698151,78.950043 
z"/>
<path fill="#CDE1A9" opacity="1.000000" stroke="none" 
	d="
M162.639633,103.935242 
	C161.384537,99.447128 162.820740,95.032791 163.741821,90.277771 
	C165.560745,94.746803 164.080017,99.261757 162.639633,103.935242 
z"/>
<path fill="#CDE1A9" opacity="1.000000" stroke="none" 
	d="
M159.968384,36.298851 
	C150.456741,37.925694 141.142975,34.613205 131.301575,34.228405 
	C131.263885,33.732185 131.520248,33.339249 131.767929,33.344635 
	C141.182327,33.549450 150.682724,32.873882 159.968384,36.298851 
z"/>
<path fill="#CDE1A9" opacity="1.000000" stroke="none" 
	d="
M167.241119,56.003494 
	C165.131317,52.335022 167.460861,48.717937 167.154877,45.008144 
	C166.914124,42.089214 166.673859,39.519245 164.180435,37.206055 
	C167.749756,36.553391 170.546387,40.130882 169.874420,44.479023 
	C169.323227,48.045746 168.625137,51.589771 167.995148,55.569077 
	C167.829956,55.998798 167.661743,56.003292 167.241119,56.003494 
z"/>
<path fill="#FBFDF9" opacity="1.000000" stroke="none" 
	d="
M146.150421,77.165649 
	C146.124466,85.910828 146.885406,85.038750 138.559326,85.044083 
	C105.736641,85.065094 72.913940,85.053810 40.091248,85.050011 
	C34.433945,85.049355 31.534410,80.380318 34.054825,75.349075 
	C35.168709,73.125526 37.257603,73.964272 38.936859,73.960594 
	C64.595085,73.904404 90.253479,73.920425 115.911827,73.920334 
	C124.575684,73.920303 133.239548,73.915527 141.903397,73.928429 
	C143.897278,73.931404 146.128082,73.636230 146.150421,77.165649 
z"/>
<path fill="#FBFDF8" opacity="1.000000" stroke="none" 
	d="
M145.956787,128.512375 
	C143.408432,129.926636 140.800079,130.133652 138.104736,130.130341 
	C105.960289,130.090851 73.815781,130.102829 41.671284,130.111694 
	C39.336720,130.112335 37.001484,130.198502 34.408684,129.071457 
	C31.909382,119.794571 33.257996,110.457481 33.073467,101.183800 
	C32.851620,90.034637 31.682121,90.996460 43.121593,90.993492 
	C75.244003,90.985161 107.366409,90.988052 139.488815,90.992500 
	C146.510635,90.993477 147.134354,91.440346 146.915146,98.266808 
	C146.595810,108.210121 148.027130,118.210350 145.956787,128.512375 
z"/>
<path fill="#B6D483" opacity="1.000000" stroke="none" 
	d="
M106.769897,99.590942 
	C116.080162,99.219131 125.029266,99.175446 134.438248,99.175728 
	C136.121429,100.130066 137.147903,101.259407 137.201752,102.819176 
	C137.403366,108.660118 138.236694,114.527870 136.446671,120.736748 
	C136.213623,121.155441 136.160446,121.160461 136.152649,121.186012 
	C126.946899,122.860245 117.688469,121.797096 108.456345,121.768021 
	C106.849655,121.762970 105.427216,120.463448 105.393593,118.946518 
	C105.252678,112.588806 103.635223,106.123955 106.769897,99.590942 
z"/>
<path fill="#CFE3AE" opacity="1.000000" stroke="none" 
	d="
M106.731117,99.224701 
	C105.273010,104.893616 106.137451,110.706276 106.024704,116.447960 
	C105.961906,119.645927 107.465012,121.158890 110.904739,121.093002 
	C118.995377,120.938019 127.091469,121.067535 135.665100,121.146751 
	C135.614975,123.239662 133.948227,122.919731 132.496063,122.923859 
	C125.005394,122.945145 117.514633,122.938179 110.023911,122.930061 
	C105.745613,122.925430 103.615204,121.076508 103.901169,116.496483 
	C104.170349,112.185478 103.945839,107.844170 103.956459,103.516235 
	C103.961021,101.653351 103.933258,99.747971 106.731117,99.224701 
z"/>
<path fill="#CFE3AE" opacity="1.000000" stroke="none" 
	d="
M136.586929,121.069183 
	C135.300659,114.130409 137.218994,106.956161 134.998276,99.607239 
	C137.353836,99.068222 138.741409,100.567657 138.816330,102.672806 
	C139.008179,108.062683 138.874771,113.466087 138.780411,118.862495 
	C138.762222,119.901413 137.928558,120.582916 136.586929,121.069183 
z"/>
<path fill="#CDE1A9" opacity="1.000000" stroke="none" 
	d="
M133.664886,105.732468 
	C134.348587,118.009918 134.348587,118.010139 122.531448,118.007042 
	C119.370781,118.006210 116.205673,117.899170 113.050804,118.033455 
	C110.321899,118.149612 109.202713,116.721344 108.651352,114.315628 
	C106.867378,106.531586 109.551666,103.030197 117.388329,103.027863 
	C121.048050,103.026779 124.709244,103.091125 128.366928,103.005020 
	C130.506592,102.954651 132.331451,103.356331 133.664886,105.732468 
z"/>
<path fill="#F7FAF2" opacity="1.000000" stroke="none" 
	d="
M131.660095,107.569382 
	C132.133575,116.044861 132.133575,116.045044 124.214539,116.046989 
	C121.881767,116.047562 119.549004,116.049103 117.216232,116.046280 
	C111.249870,116.039047 109.198013,113.086449 111.091415,107.310562 
	C111.496559,106.074654 112.201385,105.162880 113.502380,105.150848 
	C118.829285,105.101562 124.157547,105.114578 129.484192,105.186592 
	C130.621399,105.201973 131.072021,106.257103 131.660095,107.569382 
z"/>
</svg>